<?xml version="1.0" encoding="UTF-8"?>
<svg id="Dibujo" xmlns="http://www.w3.org/2000/svg" version="1.1" viewBox="0 0 1536 1024">
  <!-- Generator: Adobe Illustrator 29.8.1, SVG Export Plug-In . SVG Version: 2.1.1 Build 2)  -->
  <g id="Arbol">
    <path id="tronco" d="M1400.83,447.1c-8.84-59.77-14.15-122.23.84-181.32-10.24-2.88-19.92-7.59-29-13.01l-7.02,61-39.49-55.98c-6.18,7.01-13.9,12.32-22.5,16,17.82,25.43,46.57,44.79,53.87,76.61,5.65,24.63,1.91,51.57,2.56,76.42l42.97,97.04,12.82.36c-.52-3.42-.97-6.84-1.46-10.27-5.68-21.98-10.28-44.38-13.6-66.85Z" fill="#fff" stroke="#000" stroke-miterlimit="10" stroke-width="4"/>
    <path id="hojas" d="M1414.82,125.6c51.8-2.79,90.11,53.17,81.59,101.42-12.95,73.28-142.33,41.33-152.24-19.24-2.26,5.17-2.21,11.62-3.58,17.42-13.67,57.84-84.4,63.33-128.95,38.09-42.62-24.15-60.29-92.28-6.98-114.53-1.7-5.24-4.39-10.24-5.94-15.55-12.16-41.74,9.27-75.2,49.73-87.15,64.67-19.11,143.81,14.21,166.38,79.55Z" fill="#fff" stroke="#000" stroke-miterlimit="10" stroke-width="4"/>
  </g>
  <g id="Cesped">
    <path id="cesped-6" d="M7.66,755.77c78.37-35.73,161.06-61.67,244.99-81-1.71,10.13,6.98,16.67,16,11,1.39,19.2,16.96,10.65,26.93,3.42s20.13-17.54,30.07-25.42c-.83,8.43-1.54,25.75,8.98,28.52,19.19,5.06,16.87-23.06,19.12-34.44l41.91-6.08-30.08,76.52c-.33,7.63,16.93,15.22,23.12,17.94,4.38,1.93,9.21,3.83,13.97,4.54l-17.06,82.44c-8.13,10.72-9.32,24.75-15.37,35.63-3.09,5.55-2.31,15.05,1.89,19.96,20.07,23.43,64.64,25.3,92.74,20.68,14.41-2.37,30.61-5.06,26.77-24.19-.66-3.31-3.31-2.9-3.77-3.72-.66-1.15.08-3.5-.43-5.06-2.18-6.75-5.72-7.71-8.79-12.23-1.77-2.6-2.16-5.47-4.47-8.53-3.89-5.15-9.86-8.78-15.56-11.55l21.08-79.38,27.95.96c-.47,1.18-.93,2.12-1.03,3.46-2,27.83-2.99,53.53-6.85,81.15-.34,2.45.4,6.09-.06,7.77-.15.55-5.95,1.39-7,8.17-3.09,19.9,32.04,29.15,46.73,32.14,22.78,4.64,48.47,5.7,71.41,2,12.63-2.04,39.2-9.02,29-27.41-1.4-2.53-3.21-2.6-3.91-3.58-.99-1.38-1.96-6.29-3.49-9.02-3.8-6.78-9.85-11.16-16.84-14.16-3.08-1.32-11.51-3.06-12.69-3.81-.88-.57-4.55-6.03-6.77-7.72-5.71-4.37-13.45-6.94-20.5-5.01l8.13-73.85c4.94-1.53,24.23-6.34,24.9-11.69l-17.04-119.45c25.58-2.28,50.96-6.43,76.51-8.99,40.91-4.09,82.03-6.06,122.95-8.05l82.55-.96c1.39,1.41-5.41,30.33-3.84,32.85.39.62,4.62,1.53,5.67,2.32-3.01,56.96-3.07,114.13-2.88,171.39.22,4.41,4.62,5.85,8.05,6.94-1.21,2.68-14.68,4.56-18.23,5.77-21.97,7.53-34.66,26.47-36.64,49.35-1.12,12.89,11.06,16.53,21.84,18.92,32.68,7.24,75.63,2.28,107.47-7.6,10.87-3.37,16.99-6.95,16.61-19.47-.24-7.96-1.19-17.85-2.19-25.83-.4-3.17-4.56-18.91-3.86-19.63.48-.5,5.29.43,6.01-3.51l1.99-95.5c4.4,34.38,10.14,68.61,16.83,102.6,2.71,4.33,8.05,4.78,12.18,6.89-11.95,10.47-26.35,22.36-28.91,39.09-.44,2.86.22,5.92-.16,8.84-.94,7.23-5.37,15.4,1.84,21.59,21.66,18.59,100.01,11.99,119.89-9.36,6.88-7.39,4.53-26.33,3.21-36.02-.65-4.74-7.5-28.17-6.7-29.46.26-.42,2.21-.42,2.69-1.79-.3-28.14-6.01-56.2-7.63-84.18,13.57-7.85,10.03-21.39,5.8-33.73-4-11.69-9.71-22.75-13.29-34.71-1.51-5.04-5.71-18.8-5.76-23.23-.01-1.24,5.44.44,6.09-4.99l-4.06-35.54c18.57,4.62,37.68,6.05,56.57,8.92,2.94,5.56,12.02,12.51,13.77,18.23,2.67,8.78.33,28.83,1.75,39.25,1.02,7.51,6.52,12.41,14.3,11.53,10.95-1.25,14.01-15.06,15.12-23.95,13.03,7.07,37.36,24.21,52.56,20.58,7.64-1.83,5.04-7.8,6.89-9.14.65-.47,10.84,1.34,15.06-3.91,3.21-3.99.97-7.11,2.49-10.51.54-1.21,2.92-2.57,3.92-4.08,5.06-7.62,2.5-13.5-4.11-18.76-15.43-12.27-40.56-21.12-56.65-33.35-2.47-1.88-4.49-4.14-6.66-6.32,10.54-7.44,15.67-20,23.98-29.5v18.5c0,2.91,6.7,5.49,9.49,5.59,10.11.35,10.03-7.56,10.55-15.55.42-6.41-.85-47.56,2.1-49.4l38.85-1.14c1.88,10.34,4.35,21.02,7.29,31.21,1.3,4.53,6.08,22.15,8.95,24.14,2.71,1.88,6.5,1.4,6.76,1.64.58.53-.71,12.04.76,15.74,3.05,7.66,17.24,3.79,17.24.76v-26.5l87.53,3.42c2.68,1.02,5.7,12.67,8.51,15.05,4.08,3.46,20.26,1.53,16.74-6.73l-24.77-56.73,139,2.99v198c-29.77,146.72-178.42,218.6-311.81,247.69-109.73,23.93-222.86,26.45-334.73,28.27-171.66,2.79-352.14,3.46-521.8-23.12-140.26-21.97-313.6-73.31-367.66-219.84v-6ZM1454.68,649.77c-1.55-4.66-6.51-11.4-12.01-9.5,5.8,3.27,8.37,8.69,12.51,13.5l4.94-7.04c8.71-8.29,8.53-.27,8.55,8.04,3.24.43,2.93-5.02,6.5-5.03,1.81,0,4.28,4.19,5.49,3.03,2-1.91-6.98-8.26-9.99-2.99-.87-20.64-14.72.86-15.99,0ZM1382.67,689.77c-.5-20.55-15.11-13.32-15.02,2.99-2.33-1.82-4.93-6.58-7.43-8.04-6.74-3.93-14.05,3.88-8.57,9.05-.61-2.81.77-7.11,3.72-7.86,4.74-1.21,9.54,8.43,12,11.6,3.08,3.98,1.5-.22,1.72-1.74,2.72-18.41,11.61-23.73,11.57-1.01,3.59-.42,3.8-4.81,7.25-6.23,2.15-.88,3.73-1.04,6.01-.56,7.23,1.54,2.24,10.39,2.74,10.78,2.14,1.7,4.77-5.65,2.87-9.34-3.23-6.28-12.77-4.21-16.86.35Z" fill="#fff" stroke="#000" stroke-miterlimit="10" stroke-width="4"/>
    <path id="cesped-5" d="M1543.66,743.77v277H7.66v-249c10.29,22.82,21.97,44.17,38.02,63.48,118.79,142.78,377.33,161.34,550.47,169.53,115.08,5.45,232.67,6.22,348.05,3.03,184.18-5.09,468.89-22.72,573.26-201.74,11.44-19.62,19.5-40.63,26.2-62.3Z" fill="#fff" stroke="#000" stroke-miterlimit="10" stroke-width="4"/>
    <path id="cesped-4" d="M7.66,533.77l33-1.99-18.93,61.55c.28,5.34,22.24,8.86,23.98.99l19.05-64.45,118.8-5,15.56,74.94c2.25,8.12,24.26,6.95,22.61-2.54l-12.06-59.5c4.5,4.36,12.31,4.67,18.45,5.04,16.43,1,35.52-1.37,52.05-2.03,8.83-.35,17.68-.17,26.49-1l-8.49,28.05c1.46,3.27,19.49,6.62,22.55,3.51,6.11-6.23,9.41-38.84,15.44-47.56h28.5l-4.95,14.55c-19.23,19.14-35.08,41.73-53.54,61.46-10.42,11.14-23.28,19.28-34.53,29.47-7.87,7.13-31.65,27.49-23.01,38.77,1.42,1.85,4.4,1.72,5.02,3.74-84.55,18.25-166.76,45.83-245.99,80.01v-218ZM73.67,697.76c-1.01-3.92-1.76-9.65-5.75-11.78-9.21-4.92-12.94,12.26-9.25,15.78,3.07,2.94.87-4.72.89-5.5.14-5.65,4.34-12.44,9.12-6.02,1.35,1.81,3.5,10.16,3.99,10.52,1.98,1.44,6.1-7.99,9.48-8.04,3.98-.05,1.18,5.16,3.49,6.04,2.35-4.96.19-9.82-5.73-7.24-3.01,1.32-3.99,4.5-6.25,6.24Z" fill="#fff" stroke="#000" stroke-miterlimit="10" stroke-width="4"/>
    <path id="cesped-3" d="M836.53,529.91l-1.77,8.76,49.91,13.1-10.05,51.95c-8.8.34-17.68-.27-26.49,0-60.09,1.89-119.95,3.09-179.95,9.05-25.4,2.52-50.81,6.1-76.06,9.74l-1.25-1.44-12.21-71.3c11.89-2.74,29.49-4.97,40.39-10.12,7.56-3.57,4.35-9.13,6.83-12.66.63-.89,8.25-3.34,9.78-4.8,41.08-1.4,82.46.04,123.44.61,18.56.26,45.92-2.45,63.11-.08,4.26.59,10.05,5.73,14.32,7.19Z" fill="#fff" stroke="#000" stroke-miterlimit="10" stroke-width="4"/>
    <path id="cesped-2" d="M417.66,576.77l-20.48,71.01-43.51,6.99c.31-4.89-.8-9.92.77-14.74,1.8-5.52,16.77-24.14,21.26-29.74,4.84-6.03,22.24-27.42,27.44-30.62.91-.56,7.61-.4,9.96-.99,1.98-.5,2.64-2.05,4.57-1.91Z" fill="#fff" stroke="#000" stroke-miterlimit="10" stroke-width="4"/>
    <polygon id="cesped-1" points="1291.95 526.59 1302.1 525.79 1299.07 552.14 1291.95 526.59" fill="#fff" stroke="#000" stroke-miterlimit="10" stroke-width="4"/>
  </g>
  <path id="Sol" d="M350.07,225.73c-41.29,26.23-110.62,16.79-132.81-29.86-15.63-32.85-8.16-75.18,15.11-102.62,40.46-47.71,115.4-42.7,133.61,21.16-26.44,21.31-42.24,57.56-28.85,90.44l12.95,20.88Z" fill="#fff" stroke="#000" stroke-miterlimit="10" stroke-width="4"/>
  <g id="Arbustos">
    <path id="arbusto-9" d="M1517.26,509.32c-.5.88-1.02,1.7-1.59,2.45.63-8.14,4.27-17.38,4.06-25.51-.52-19.73-16.17-20.21-25.26-5.19-2.46,4.07-3.48,11.45-7.81,12.69v-29.5c0-3.76-3.5-16.03-5.45-19.55-11.6-20.92-20.91,17.87-22.27,25.83-.54,3.14-1.3,18.3-2.29,19.22-1.77,1.66-1.67-.63-2.08-1.42-4.23-8.29-12.48-26.73-24.87-18.04-10.29,7.22-4.83,30.77-4.05,41.46-4.22-2.2-1.61-12.6-8.02-10.59-5.19,1.63-1.15,8.16-.93,13.05.05,1.1.68,4.72-1.03,4.53-.43-1.6-.83-3.21-1.24-4.81.48,3.42.94,6.84,1.46,10.27h.12s0-.22,0-.22v.22l97.04,2.7c2.43-5.68,4.19-11.37,4.22-17.6Z" fill="#fff" stroke="#000" stroke-miterlimit="10" stroke-width="4"/>
    <path id="arbusto-8" d="M1543.66,337.77c-7.4-28.56-31.83-56.25-64.03-48.53-35.51,8.51-47.32,52.52-41.98,84.53-8.93-2.99-18.88,4.68-24.39,11.1-16.86,19.66-12.7,37.78-9.43,61.23,2.56,18.34,6.87,36.41,9.84,54.67,2.12-3.53,6.76-1.68,6.98-2,1.23-1.73-2.17-18.7,4.57-27.94,9.86-13.51,23.92.94,30.42,9.93-1.08-9.25,5.23-39.56,14.27-43.24,9.61-3.91,14,4.27,16.46,12.02.95,3,3.28,12.08,3.28,14.72v19.5l7.01-10.49c26.6-19.99,30.18,19.04,20.59,36.04-.03,6.23-1.79,11.91-4.22,17.6l30.62.85v-190Z" fill="#fff" stroke="#000" stroke-miterlimit="10" stroke-width="4"/>
    <path id="arbusto-7" d="M7.66,421.77c9.24-16.94,30.12-28.21,47.33-14.83,9.16,7.13,11.58,18.23,14.2,28.91l-27.62,92.82-33.9,2.1v-109Z" fill="#fff" stroke="#000" stroke-miterlimit="10" stroke-width="4"/>
    <path id="arbusto-6" d="M147.66,490.77c1.87.42,1.94-.62,2.84-1.66,6.61-7.71,9.79-16.34,22.16-17.34l10.01,50-117.01,4.99,26.01-84.48c17.04-8.35,38.31-7.52,49.4,9.58,2.11,3.25,6.59,12.89,6.59,16.41v22.5Z" fill="#fff" stroke="#000" stroke-miterlimit="10" stroke-width="4"/>
    <path id="arbusto-5" d="M368.36,520.46c-2.08,1.72-9.95.22-13.17.25-2.72.03-5.13,1.17-8.02,1.14-3.61-.04-7.77-1.57-11.49-1.57l20.17-68.83c18.52-14.24,41.02-3.37,48.59,17.04.92,2.48,3.6,11.68,3.28,13.75-.35,2.29-13.64,10.92-16.58,13.49-8.01,7.01-16.48,16.21-22.77,24.72Z" fill="#fff" stroke="#000" stroke-miterlimit="10" stroke-width="4"/>
    <path id="arbusto-4" d="M288.66,518.77l-56,2c-.9-25.32,2.93-50.85.01-76,10.58,8.61,13.62,25.39,13.04,38.55-.21,4.79-1.75,9.17-2.35,13.67-.78,5.85,2.94-.46,4.96-2.07,4.9-3.92,12-6.99,17.72-3.02,2.17,1.51,2.41,3.53,3.53,5.43.54.92-.51,1.98,2.1,1.43-2.95-10.88,7.68-21.07,17-24.99v45Z" fill="#fff" stroke="#000" stroke-miterlimit="10" stroke-width="4"/>
    <path id="arbusto-3" d="M222.66,520.77l-16.99.99-15.94-77.55c5.82-9.7,15.69-12.54,26.22-8.23,1.22.5,6.71,3.68,6.71,4.29v80.5Z" fill="#fff" stroke="#000" stroke-miterlimit="10" stroke-width="4"/>
    <path id="arbusto-2" d="M1129.65,519.76c-2.65-3.49-19.07-16.27-19.78-18.7-3.76-12.88,6.68-30.82,19.26-35.33,9.39-3.36,24.25-3.31,30.41,5.35l-29.89,48.68Z" fill="#fff" stroke="#000" stroke-miterlimit="10" stroke-width="4"/>
    <path id="arbusto-1" d="M298.66,474.77c8.2,1.06,14.25,7.18,16.72,14.78,4.15,12.72-1.64,19.97-3.73,32.23-4.1-1.85-8.53-2.29-12.99-2v-45Z" fill="#fff" stroke="#000" stroke-miterlimit="10" stroke-width="4"/>
  </g>
  <g id="Columpio">
    <path id="soporte-der" d="M154.46,292.98l63.94,300.53.14,7.14c-4.91.76-15.27,3.93-16.61-2.67-20.36-97.46-40.56-194.98-63.09-291.95-.1-2.4,3.28-2.61,4.76-3.84,3.27-2.72,6.78-6.28,8.14-10.41l2.72,1.18Z" fill="#fff" stroke="#000" stroke-miterlimit="10" stroke-width="4"/>
    <path id="soporte-izq" d="M129.66,306.78l-87,287.25c-2.01,3.77-14.32.71-18.01-.27l87.18-290.31,1.32-1.65c4.86,3.24,10.54,5.37,16.51,4.99Z" fill="#fff" stroke="#000" stroke-miterlimit="10" stroke-width="4"/>
    <path id="soporte" d="M318.52,569.62c-1.54.99-15.53-1.54-16.44-2.8-1.85-2.55,6.57-21.73,6.55-26.36,9.26-3.23,7.66-9.82,5.43-17.72,13.17-34.98,19.14-77.2,32.63-111.45.38-.96.34-1.87,1.47-2.51,1.57,3.21,13.38,10.34,13.32,12.25l-42.96,148.58Z" fill="#fff" stroke="#000" stroke-miterlimit="10" stroke-width="4"/>
    <path id="sup-izq" d="M152.65,288.76c2.41-6.55.88-13.83-1.99-19.98,16.96,1.93,34.46.97,51.54,1.95,8.05.46,20.49.59,27.9,2.1,11.82,2.41,11.75,18.71,1.08,19.96-19.36-.03-38.75-2.18-57.98-3.06-6.84-.31-13.93.99-20.55-.97Z" fill="#fff" stroke="#000" stroke-miterlimit="10" stroke-width="4"/>
    <circle id="eje" cx="129.24" cy="282.21" r="21.73" fill="#fff" stroke="#000" stroke-miterlimit="10" stroke-width="4"/>
    <path id="lateral-izq" d="M230.4,524.78l.99-227.8c0-.68-.54-1.23-1.22-1.23h-2.58c-.67,0-1.22.54-1.22,1.22l-.98,224.02s0,.09,0,.14c-.27,2.38-.54,3.45-.98,3.86h6.04c-.01-.07-.04-.14-.04-.22Z" fill="#fff" stroke="#000" stroke-miterlimit="10" stroke-width="2"/>
    <path id="asiento-sup" d="M305.81,523.82c-4.36-.66-8.95-.23-13.26-1.79-.54-.19-1.14-.02-1.46.45l-.7,1.04c-.56.84-1.84.67-2.17-.29-.15-.45-.55-.78-1.03-.83-5.77-.57-11.81,1.06-17.18,1.21-10.05.28-26.19-1.62-35.15-.06-1.22.21-1.69.83-2,1.45h.13-.13c-.05.09-.09.19-.13.28-.5,1.14-2.12.86-2.3-.28h-6.04c-.4.38-.96.21-1.79,0h-3.61,3.61c-.83-.21-1.94-.46-3.47-.24-.59.09-1.39.27-2.17.57-1.25.48-.96,2.31.37,2.37l21.48.94c.08,0,.16,0,.24-.01,12.81-2.16,26-.55,38.97-1l30.52-2.06c.27-1.3-1.86-1.61-2.74-1.75Z" fill="#fff" stroke="#000" stroke-miterlimit="10" stroke-width="2"/>
    <path id="sup-mid" d="M238.66,292.76c3.34-3.65,3.88-9.53,2.79-14.28-.54-2.36-2.9-3.31-2.78-5.7,1.56-.02,2.93.94,4.49,1,14.33.59,29.8.75,43.99,2.01,13.42,1.19,18.36,14.23,5.96,19.92l-54.44-2.95Z" fill="#fff" stroke="#000" stroke-miterlimit="10" stroke-width="4"/>
    <path id="asiento-inf" d="M312.65,526.76c-.28,2.44.93,6.88-.99,8.51-3.59,3.05-46.59,3.24-54.55,3.45-9.59.26-19.22,1.65-29,1.08-2.61-.15-13.2-1.21-14.71-2.04-1.39-.76-1.76-3.16-1.79-4.53-.14-7.14,3.98-3.55,8.5-3.42,30.64.88,62.23.16,92.54-3.05Z" fill="#fff" stroke="#000" stroke-miterlimit="10" stroke-width="4"/>
    <rect id="lateral-der" x="291.62" y="298.76" width="5.1" height="221.02" fill="#fff" stroke="#000" stroke-miterlimit="10" stroke-width="2"/>
    <path id="sup-der" d="M329.66,297.77l-29.99-1.01c-.11-2.39,2.24-3.34,2.78-5.7,1.27-5.52.17-10.37-3.79-14.28l32,2c.38,1.08-1,2.18-1,2.49v16.5Z" fill="#fff" stroke="#000" stroke-miterlimit="10" stroke-width="4"/>
  </g>
  <g id="Cielo">
    <path id="cielo-1" d="M7.66,416.31V0h1536v326.88c-12.55-25.54-34.83-47.04-65.78-39.03-31.88,8.25-47.12,46.03-44.22,76.29.23,2.35.97,4.37,2,6.45-13.41.42-24.39,10.61-30.52,21.85l-6.47,14.92-4.05-54.1c-.37-14.17,1.6-28.2,2.49-42.32,10.47-13.89,23.83-25.31,36.5-37.16,109.48,4.85,70.51-152.59-16.78-148.75-22.88-64.6-100.88-96.72-165.59-80.24-50.05,12.75-72.4,56.18-50.8,103.79-51.54,26.2-34.72,92.73,8.31,118.12,25.85,15.25,63.67,20.51,91.9,9.52,17.68,26.23,48.33,45.59,54.57,78.44,2.88,15.18,2.78,32.79,2.49,48.28-.11,5.98-1.95,11.81-.05,18.34l-8.73-22.61c-2.86-15.49,1.55-47.46-11.23-57.4-10.55-8.2-30.42-1.97-34.07,10.91-.8,2.81-1.95,11.23-1.95,13.96v21.36l-37,.99v-45.21c0-2.37-3.91-11.24-5.55-13.36-5.86-7.56-18.55-9.31-27.15-6.22-24.34,8.75-16.37,50.07-18.81,69.74-22.46,20.04-36.33,48.86-51.51,74.53-24.81-18.45-58.35,1.32-53.99,31.79-13.7-10.03-27.69-20.7-44.03-26.29-5.43-1.86-15.69-2.94-19.46-5.51-3.46-2.35-6.3-7.93-9.5-10.92,6.18-2.5,12.89-5.5,18.67-8.78,3.42-1.94,13.95-10.17,16.25-10.66,1.35-.29,3.39,1.46,5.55,1.58,18.77,1.06,35.82-4.28,42.84-23.07.64-1.72.41-4.81,1.14-5.82.44-.61,12.01-3.28,14.55-4.42,24.81-11.11,43.52-50.94,26.83-75.35-2.7-3.95-7.39-6.72-9.91-10.05,3.74-7.39.33-20.36,2.06-26.66.21-.78,2.28-1.32,3.24-2.94,9.24-15.54,12.03-53.82,10.81-71.83-6.67-98.84-154.04-158.98-237.4-119.54-31.6,14.95-57.7,47.43-65.74,81.23-21.67-.12-43.9-.06-64.68,6.78-29.03,9.56-46.42,30.1-12.25,49.47,20.49,11.61,46.13,15.61,68.9,20.47-1.88,17.5-1.7,35.44-5.18,52.75-3.4,16.9-12.59,32.19-15.45,49.23-7.27,43.34,23.98,78.48,61.07,95.8l32.67,11.73c-5.38,3.92-10.98,3.29-17.48,2.99-10.18-.48-22.6-2.59-32.84-4.13-9.78-1.47-19.52-3.34-29.09-5.8l-1.07,4.97c-16.87-8.39-33.37-17.91-47.98-29.83-4.1-3.34-19.21-16.42-20.28-20.59-3.08-12.03,8.74-33.41-4.28-42.44-1.73-1.2-5.26-1.41-5.87-3.17-.67-1.93,1.76-12.29,1.96-15.7.28-5.08.66-15.99-1.82-20.14-2.99-5-8.99-3.49-10.09-4.38-.2-.16-.82-3.61-1.56-4.91-3.38-5.98-10.78-7.28-16.98-4.79-2.14.86-5.71,4.71-6.09,4.72-.45,0-4.63-3.45-8.18-3.5-2.75-.04-7.22,2.32-9.36,4.12-16.13,13.62-17.21,63.47-28.53,82.93-5.04,8.67-30.5,25.99-39.92,31.88-24.4,15.24-50.16,26.07-79.52,26.8l15.67-6.77c26.1-13.89,48.83-37.12,53.2-67.36,4.07-28.19-11.85-58.33-10.98-87.32.18-6,6.48-19,7.81-27.11,4.5-27.65-3.29-57.55-19.89-80.01-31.97-43.25-92.19-58.73-143.81-49.37.02-44.73-47.23-55.64-83.26-43.47-7.78,2.63-14.43,7.18-21.73,10.69-6.08-27.64-31.92-51.08-60.52-53.64-64.97-5.8-110.68,59.37-97.21,119.43,13.36,59.58,84.3,75.86,134.72,52.44-5.9,14.05-11.1,28.4-13.1,43.6-60.49-3.17-120.8-8.15-181.4-9.3-19.38-20.91-51.84-1.71-42.97,25.28,1.12,3.4,4.44,6.27,3.28,10.19l-38.81,129.92-1.44-7.99c-8.38-31.3-43.47-34.09-61.55-8.9Z" fill="#fff" stroke="#000" stroke-miterlimit="10" stroke-width="4"/>
    <path id="cielo-2" d="M289.66,298.76c-1.06,57.04-1.23,114.18-.96,171.34-8.31,4.55-17.53,10.49-19.05,20.67-3.31-.73-5.73-3.79-9.47-3.84-4.06-.06-8.89,3.21-12.51,4.84,1.91-17.66.47-37.37-13.49-50.02-.64-34.01-.91-68.4-.56-102.52.09-8.84-.35-17.97,0-27,.21-5.22,1.92-10.89,1.04-16.46l55.01,3Z" fill="#fff" stroke="#000" stroke-miterlimit="10" stroke-width="4"/>
    <path id="cielo-3" d="M223.66,295.76l-1.02,141c-10.97-8.15-25.63-7.14-33.98,4l-31.01-148,66.01,2.99Z" fill="#fff" stroke="#000" stroke-miterlimit="10" stroke-width="4"/>
    <path id="cielo-4" d="M329.66,300.77v14.5c0,5.14,4.52,19.1,6.49,24.51.5,1.37,2.22,2.79,2.36,3.67.13.81-5.71,11.29-6.57,15.1-4.11,18.14,4.41,34.22,14.6,48.54-2.3,2.67-3.1,5.67-4.14,8.92-8.18,25.71-14.73,52-22.75,77.76l-3.28-9.2c-3.58-6.73-9.79-12.19-17.71-12.79v-173l31,2Z" fill="#fff" stroke="#000" stroke-miterlimit="10" stroke-width="4"/>
    <path id="cielo-5" d="M150.66,468.27c-2.63-22.1-23.37-37.65-45.39-33.39l-12.62,3.38,39.03-130.73,4.03-1.35,35.9,162.16.06,1.42c-9.04-.24-15.43,6.88-21,13-.39-4.63.54-9.97,0-14.5Z" fill="#fff" stroke="#000" stroke-miterlimit="10" stroke-width="4"/>
    <path id="cielo-6" d="M459.47,461.97c.69.97.39,5.2,2.19,6.79-12.31-3.45-26.46.46-37.97,5.54-4.94,2.18-9.17,5.25-14.03,7.46.24-26.52-26.35-49.33-51.51-35,.53-8.16,4.44-16.77,6.53-25,11.43,3.85,22.86,2.68,32.37-4.96,12.25,14.48,26.96,27.24,43.58,36.48,3.02,1.68,18.23,7.83,18.83,8.68Z" fill="#fff" stroke="#000" stroke-miterlimit="10" stroke-width="4"/>
    <path id="cielo-7" d="M1363.65,303.77l-34.86-47.68c8.09-10.22,13.54-21.42,15.89-34.31l9.01,13.47,16.76,16.12c-3.1,17.3-5.85,34.79-6.79,52.4Z" fill="#fff" stroke="#000" stroke-miterlimit="10" stroke-width="4"/>
    <path id="cielo-8" d="M1317.66,538.77l71.39,1.94c1.39,5.38,6.66,12.45,7.62,17.56.4,2.12.31,1.11-1.03,1.04-26.36-1.29-52.68-.5-78.98-2.55-.49-.36,1-1.28,1-1.49v-16.5Z" fill="#fff" stroke="#000" stroke-miterlimit="10" stroke-width="4"/>
    <polygon id="cielo-9" points="1373.16 506.77 1381.66 524.76 1317.66 523.77 1317.66 506.77 1373.16 506.77" fill="#fff" stroke="#000" stroke-miterlimit="10" stroke-width="4"/>
    <polygon id="cielo-10" points="1359.66 473.77 1367.66 492.77 1317.66 492.77 1317.66 473.77 1359.66 473.77" fill="#fff" stroke="#000" stroke-miterlimit="10" stroke-width="4"/>
    <polygon id="cielo-11" points="1274.66 523.77 1238.66 523.77 1264.16 476.76 1274.66 523.77" fill="#fff" stroke="#000" stroke-miterlimit="10" stroke-width="4"/>
    <path id="cielo-12" d="M1247.66,387.77h-18v-23.5c0-3.22,2.78-15.61,4.54-18.46,2.57-4.13,7.25-6.07,10.48-1.56,6.2,8.68,1.35,32.79,2.98,43.52Z" fill="#fff" stroke="#000" stroke-miterlimit="10" stroke-width="4"/>
    <polygon id="cielo-13" points="1317.66 442.77 1345.68 442.25 1353.66 459.76 1317.66 460.77 1317.66 442.77" fill="#fff" stroke="#000" stroke-miterlimit="10" stroke-width="4"/>
    <polygon id="cielo-14" points="1428.66 271.78 1397.67 303.77 1403.67 266.77 1428.66 271.78" fill="#fff" stroke="#000" stroke-miterlimit="10" stroke-width="4"/>
    <path id="cielo-15" d="M1339.66,428.77h-22v-19.5c0-2.31,12.93-2.67,15.04-3.07l6.96,22.57Z" fill="#fff" stroke="#000" stroke-miterlimit="10" stroke-width="4"/>
    <path id="cielo-16" d="M1331.66,387.77c-3.22-1.53-13.64-.59-14.06-4.52,1.71-5.88.49-11.89,1.32-17.72,1.42-10.01,7.94-14.85,11.3-2.82.24.87,1.44,7.13,1.44,7.56v17.5Z" fill="#fff" stroke="#000" stroke-miterlimit="10" stroke-width="4"/>
    <path id="cielo-17" d="M1300.66,443.77v17l-20.96.96c-.94-4.39-3.3-14.77,2.63-16.79,3.49-1.19,13.86-.06,18.33-1.17Z" fill="#fff" stroke="#000" stroke-miterlimit="10" stroke-width="4"/>
    <polygon id="cielo-18" points="1300.66 473.77 1300.66 493.77 1286.59 493.33 1282.64 475.28 1300.66 473.77" fill="#fff" stroke="#000" stroke-miterlimit="10" stroke-width="4"/>
    <path id="cielo-19" d="M1299.66,523.77l-6.96-.05-3.06-16.44c.11-.98,10.01-1.06,10.01.99v15.5Z" fill="#fff" stroke="#000" stroke-miterlimit="10" stroke-width="4"/>
    <path id="cielo-20" d="M1301.66,429.77c-1.58-.45-12.01,2.28-12.01.49,2.75-6.14,6.8-12.17,12.01-16.49v16Z" fill="#fff" stroke="#000" stroke-miterlimit="10" stroke-width="4"/>
    <path id="cielo-21" d="M817.66,519.76l-176.01-.49c35.07-18.2,64.22-45.4,90.51-74.48,17.53,21.81,36.91,40.92,59.61,57.37,8.47,6.14,17.51,11.37,25.89,17.6Z" fill="#fff" stroke="#000" stroke-miterlimit="10" stroke-width="4"/>
  </g>
  <g id="Tobogan">
    <path id="lateral-izq1" data-name="lateral-izq" d="M1235.62,390.84c-2.53-.04-5.03-.08-7.47-.08-18.39,0-34.04,28.24-42.92,42.08-18.51,28.87-34.22,59.59-53.84,87.77-.27.39-.28.9-.01,1.29l8.27,12.37c.69.93,1.5-.47,1.99-1.03,4.57-5.14,10.53-16.24,14.43-22.57,18.98-30.8,36.33-62.38,56.56-92.44,4.41-6.55,12.83-21.28,18.98-25.02.01,0,.03-.02.04-.02.6-.37,1.22-.14,1.55.3.96-.73,1.84-1.55,2.42-2.66Z" fill="#fff" stroke="#000" stroke-miterlimit="10" stroke-width="4"/>
    <path id="medio-sup" d="M1276.16,390.77c-12.58.97-27.12.31-40.53.08-.58,1.11-1.46,1.93-2.42,2.66.28.38.34.91-.03,1.38-35.29,44.59-60.11,96.58-92.23,143.39-.1.14-.17.29-.19.46-.42,3.96,11.58,14,14.42,17.02,3.81,4.06,7.47,9.05,11.33,13.22.38.41,1,.49,1.46.19,5.19-3.4,8.18-8.95,11.5-14.09,28.2-43.66,51.13-92.43,78.02-136.98,6.19-10.25,11.83-20,21.17-27.83-.77-1.65-2.25.49-2.5.5Z" fill="#fff" stroke="#000" stroke-miterlimit="10" stroke-width="4"/>
    <path id="agarradera-der" d="M1427.66,587.75c-3.98,1.01-10.93,4.22-13.9.41-22.48-50.74-47.18-100.77-67.57-152.43-4.73-11.99-10.49-24.46-11.52-37.48-.82-10.41,1.85-33.8-3.99-42.01-1.31-1.85-4.14-3.61-6.45-3.46-10.34.67-8.16,23.59-8.53,30.53-1.08,20.27-.95,40.84-1.08,60.92-.33,51.08.22,102.05-.95,153.05-.58,4.19-10,3.52-11.53.5-1.13-2.23-.61-17.72-.53-21.56,1.09-49.88,2.24-100.03,3.09-149.91.34-20.25-1.38-42.15-.09-62.09.89-13.67,5.01-24.57,20.8-25.19,22.49-.88,17.94,33.02,19.25,47.22,1.85,20.05,5.81,26.3,13.48,43.52,23.38,52.56,46.54,105.24,69.51,157.97Z" fill="#fff" stroke="#000" stroke-miterlimit="10" stroke-width="4"/>
    <path id="lateral-der-inf" d="M1301.66,411.77c-.12.2-3.58.95-4.24,1.98-33.66,49.84-56.49,107.4-89.35,157.94-2.51,3.85-15.92,23.96-19.82,23.01l-12.6-15.92c11.28-1.07,19.69-15.14,25.42-24.09,26.6-41.64,47.8-92.04,72.41-135.59,6.64-11.75,13.85-26.09,28.17-29.33v22Z" fill="#fff" stroke="#000" stroke-miterlimit="10" stroke-width="4"/>
    <path id="lateral-der1" data-name="lateral-der" d="M1292.65,389.78c-1.39,2.14-4.85,3.55-6.64,5.34-3.84,3.86-8.29,10.61-11.16,15.34-24.27,40.05-43.85,85.94-67.02,126.98-5.61,9.94-20.51,36.51-31.15,39.93-3.79,1.22-5.38-3.04-8-5.1,9.72-7.26,15.51-19.79,21.78-30.2,25.88-42.96,49.52-95.32,77.39-135.61,5.87-8.49,13.12-18.53,24.8-16.68Z" fill="#fff" stroke="#000" stroke-miterlimit="10" stroke-width="4"/>
    <path id="agarradera-izq" d="M1216.66,354.27c1.5-17.76,11.19-36,31.97-28.97,9.15,3.1,11.7,10.06,13.02,18.98,2.14,14.52-.76,28.92.02,43.49h-12.01c.4-12.27,2.99-28.14-.5-40-3.22-10.94-13.26-12.51-17.99-2-5.56,12.36-2.69,28.13-3.64,41.36-.68,1.99-8.45,2.43-10.87,3.63.73-11.84-.99-24.79,0-36.5Z" fill="#fff" stroke="#000" stroke-miterlimit="10" stroke-width="4"/>
    <path id="agarradera-izq-inf" d="M1299.66,579.77c-.23.23-3.43.06-4.28-.21-3.67-1.19-4.8-7.65-5.98-11.02-10.56-30.06-15.67-64.18-22.82-95.28,2.96-6.11,5.66-13.49,10.07-18.49,3.35,25.16,9.11,50.06,14.69,74.82,1.44,6.39,8.32,26.48,8.32,30.68,0,2.79.7,18.82,0,19.5Z" fill="#fff" stroke="#000" stroke-miterlimit="10" stroke-width="4"/>
    <path id="escalon-1" d="M1403.65,573.76c-26.94-2.66-54.48-.29-81.39-3.12-7.65-.8-3.84-4.42-4.61-10.88l79.51,2c3.24.59,5.12,8.92,6.49,12Z" fill="#fff" stroke="#000" stroke-miterlimit="10" stroke-width="4"/>
    <polygon id="escalon-2" points="1383.52 527.9 1387.66 537.76 1317.65 536.77 1317.65 526.76 1383.52 527.9" fill="#fff" stroke="#000" stroke-miterlimit="10" stroke-width="4"/>
    <path id="agarradera-izq-sup" d="M1218.9,587.53c-1.89-1.89-1.72-19.9-2.01-24.04l15.76-28.72-1.2,50.28c-1.05,4.41-10.12,4.91-12.55,2.47Z" fill="#fff" stroke="#000" stroke-miterlimit="10" stroke-width="4"/>
    <path id="escalon-4-der" d="M1317.66,503.77v-8.01s49.51-1.1,49.51-1.1c2.14.2,4.44,6.7,4.49,9.11h-54Z" fill="#fff" stroke="#000" stroke-miterlimit="10" stroke-width="4"/>
    <path id="escalon-3-der" d="M1357.66,471.77h-40v-9c5.66,1.16,35.25-1.73,37.5.99.98,1.18,2.38,6.16,2.5,8Z" fill="#fff" stroke="#000" stroke-miterlimit="10" stroke-width="4"/>
    <path id="lateral-der-sup" d="M1317.66,388.77c2.13-.05,4.24-.08,6.37.13,12.32,1.17,5.6,6.03,8.64,15.36-.03.65-11.56,1.11-12.97,1.1-.83,0-2.04-.37-2.04-1.09v-15.5Z" fill="#fff" stroke="#000" stroke-miterlimit="10" stroke-width="4"/>
    <polygon id="escalon-5-der" points="1317.66 439.77 1317.65 431.76 1341.05 430.7 1344.66 439.77 1317.66 439.77" fill="#fff" stroke="#000" stroke-miterlimit="10" stroke-width="4"/>
    <polygon id="escalon-4-izq" points="1300.66 463.77 1300.66 471.77 1281.66 471.77 1280.66 463.77 1300.66 463.77" fill="#fff" stroke="#000" stroke-miterlimit="10" stroke-width="4"/>
    <path id="escalon-5-izq" d="M1301.66,432.76l-1.15,7.86-16.85,1.13c2.78-10.51,9.09-7.65,18-8.99Z" fill="#fff" stroke="#000" stroke-miterlimit="10" stroke-width="4"/>
    <path id="escalon-3-izq" d="M1300.65,495.77c1.56,12.71-3.4,7.61-11.99,9l-2-8c4.71-.06,9.46.47,13.99-1.01Z" fill="#fff" stroke="#000" stroke-miterlimit="10" stroke-width="4"/>
    <path id="medio-inf" d="M1074.04,580.33c8.97,7.89,13.71,16.27,25.89,7.42,1.01-.74.28-2.6,2.19-1.96l26.54,27.96-52.77-8.22-3.22-26.77c1.49-.38.78,1.03,1.37,1.55Z" fill="#fff" stroke="#000" stroke-miterlimit="10" stroke-width="4"/>
  </g>
  <g id="Juan">
    <path id="rostro-juan" d="M1069.66,252.77c-4.75,25.08-4.9,53.5,5.15,77.35,1.48,3.51,11.02,22.28,15.74,19.52.77-.45,7.47-12.79,9.28-15.21,30.01-40.01,80.25-5.71,58.71,39.71-11.99,25.28-41.75,44.3-65.87,21.62,2.48,8.54-3.76,17.09-9.04,23.47-54.05,65.32-199.17,65.23-238.52-14.43-20.82-42.16,5.36-68.48,10.53-108.56,1.66-12.83,1.38-25.99,3.16-38.84.96-6.91,1.55-16.97,6.39-21.61,21.96-21.01,62.81-17.27,89.68-10.75,38.17,9.27,75.15,25.05,114.78,27.72ZM892.42,241.03c-9.44,1.39-23.69,11.57-21.75,22.2,1.38,7.56,5.86.47,8.05-.89,5.8-3.6,12.58-5.77,19.47-5.62,5.52.12,15.13,4.33,14.26-6.21-.82-9.93-12.4-10.6-20.03-9.48ZM1005.31,257.12c-8.5-8.27-35.76-19.65-40.17-3.38-3.03,11.18,6.56,8.18,12.91,9.15,3.81.58,8.53,1.59,12.16,2.84,4.97,1.71,22.62,13.05,23.99,13.06,1.49.01,2.42-1,2.46-2.45.12-4.7-7.85-15.83-11.33-19.22ZM905.66,340.76c14.07-15.71,9.69-56.04-15.5-56.04-35.86,0-31.3,75.79,7.49,62.05-.19,2.7-2.45,3.57-2.93,6.55-1.67,10.27,4.33,19.58,14.68,21.22,2.36.37,8.81.94,8.25-2.76-27.29,3.64-25.33-35.39.02-27.52.92.28,9.54,5.78,7.97,2.02-2.23-5.33-14.86-7.53-19.99-5.52ZM973.4,291.01c-36.42,6.21-27.29,81.44,13.62,64.61,33.55-13.8,21.25-70.56-13.62-64.61ZM1146.65,350.76c.87-10.44-5.71-14.19-15.41-12.9-9.84,1.3-24.95,20.74-25.58,30.9,5.32.68,2.73-6.62,8.94-8.54,15.73-4.88,13.26,14.98,5.06,22.05,3.82,1.23,8.2-5.36,9.22-8.79,3.46-11.7-2.16-18.43-14.22-16.73,4.67-10.3,21.16-24.05,29.88-10.37,1,1.56.41,4.28,2.11,4.37Z" fill="#fff" stroke="#000" stroke-miterlimit="10" stroke-width="4"/>
    <path id="gorra-der-juan" d="M1136.63,153.3c-5.1-6.02-24.09-24.61-30.48-27.52-.43-.2-1.64-.25-1.48.49,3.06,3.28,3.73,8.6,4.04,12.96,1.9,26.51-3.04,61.16-10.33,86.76-1.73,6.09-3.9,13.88-7.53,19.21.05-.07.1-.13.16-.19-.06.06-.11.12-.16.19,0,0,0,.01-.01.02-.66.99-.05,2.64-1.52,3.61,17.67,10.28,35.24,21.24,51.66,32.13,2.18,1.44,10.43,8.95,12.58,7.86.07-.03.11-.1.14-.17,15.57-46.03,15.66-96.74-17.05-135.35Z" fill="#fff" stroke="#000" stroke-miterlimit="10" stroke-width="4"/>
    <path id="gorra-izq-juan" d="M1090.83,245.21c-.04.06-.08.12-.12.18-.19.27-.61.06-.51-.26,5.87-18.25,10.62-36.98,13.32-56.01,2.17-15.29,7.12-53.63-2-65.72-3.52-4.67-26.72-15.96-33.18-18.82-40.82-18.05-92.56-24.24-134.35-6-32.41,14.15-58.4,45.74-67.23,79.82-.05.18.09.36.27.36,66.87,2.59,132.48,21.71,191.31,52.82,10.18,5.39,20.55,11.16,30.88,17.17.78-.93.79-1.92.79-3.76,0,1.84-.01,2.84-.79,3.76.03.02.07.04.1.06,1.47-.97.86-2.62,1.52-3.61Z" fill="#fff" stroke="#000" stroke-miterlimit="10" stroke-width="4"/>
    <path id="camisa-der-juan" d="M1111.13,506.79c-13.86-11.92-33.93-26.2-51.46-31.54-2.69-.82-12.61-3.37-14.74-3.29-.93.03-1.08.02-1.75.76-2.11,2.33-6.64,12.97-9.1,16.96-3.61,5.85-24.33,37.01-29.06,37.93-2.57.5-20.32-16.9-26.8-18.91-21.93-6.81-28.23,10.76-32.26,27.86-6.66,39.3-9.03,79.31-9.3,119.21,36.08,4.51,72.23,4.08,108.03-2.48,5.07-.93,28.2-5.67,30.99-8.01,1.46-1.23,1.1-3.34,1-4.98-1.23-21.34-6.14-44.35-8.28-65.77-9.04-10.57-19.74-21.15-25.72-33.77,13.52,12.71,24.05,29.32,37.98,41.51,1.12.99,7.11,6.05,8.01,5.48-.99-3.56,1.49-8.08,3.19-11.3,5.35-10.09,29.84-40.64,41.29-40.76,1.33-.01,2.35.65,3.51,1.07,2.84-3.32-22.21-27.13-25.52-29.97Z" fill="#fff" stroke="#000" stroke-miterlimit="10" stroke-width="4"/>
    <path id="boton-inf-juan" d="M951.83,593.07c-4.48,0-8.11,3.63-8.11,8.11s3.63,8.11,8.11,8.11,8.11-3.63,8.11-8.11-3.63-8.11-8.11-8.11Z" fill="#fff" stroke="#000" stroke-miterlimit="10" stroke-width="4"/>
    <path id="boton-sup-juan" d="M955.42,552.29c-4.48,0-8.11,3.63-8.11,8.11s3.63,8.11,8.11,8.11,8.11-3.63,8.11-8.11-3.63-8.11-8.11-8.11Z" fill="#fff" stroke="#000" stroke-miterlimit="10" stroke-width="4"/>
    <path id="camisa-izq-juan" d="M947.14,512.83c.09.2.19.39.28.6.24.54-.5.97-.87.51-12.74-15.6-23.96-1.21-38.15,5.49-.34.16-.73-.09-.73-.47v-14.69c0-4.08,4.51-17.39,6.52-21.48,1.62-3.31,4.07-6.14,6.02-9.24.21-.34-.03-.77-.43-.78-22.71-.35-45.24-4.58-67.47-8.87-.32-.06-.62.19-.6.52.97,24.48-4.68,48.8-13.83,71.3-.12.28.04.6.34.68l46.39,12.33c.25.07.52-.06.61-.31,2.86-7.15,3.78-14.91,6.44-22.17.55-1.51,1.39-5,3.01-5.48l-21.85,115.97c-.04.22.07.45.27.56,18.38,9.42,39.55,13.88,59.99,17.36.31.05.59-.18.6-.5.28-30.26,1.42-60.74,5.12-90.77,1.2-9.73,2.38-19.73,4.75-29.25,1.08-4.34,7.66-19.34,7.72-20.86,0-.1,0-.2-.01-.31-1.37-.22-2.73-1.95-4.1-.14Z" fill="#fff" stroke="#000" stroke-miterlimit="10" stroke-width="4"/>
    <path id="cuello-izq-juan" d="M943.58,474.25c0-1.8.14-3.33.83-4.92.13-.29-.03-.63-.33-.72-9.63-2.61-13.46-1.8-20.4,5.66-10.01,10.75-12.22,26.33-13.87,40.35-.05.44.44.73.8.48,12.3-8.69,28.79-19.01,36.54-2.28,1.37-1.8,2.73-.07,4.1.14-.15-2.34-2.83-6.14-3.53-8.75-2.31-8.64-4.1-21.05-4.13-29.97Z" fill="#fff" stroke="#000" stroke-miterlimit="10" stroke-width="4"/>
    <path id="brazo-der-juan" d="M1251.68,656.76c-.14-.1-.4-1.91-1.46-3.02-8.12-8.5-15.91-15.49-27.56-18.97,7.33,8.38,30.86,17.66,27.78,31.27-1.17,5.16-10.8,6-14.77,4.2-1.75-.79-10.8-10.43-14.1-12.89-1.96-1.46-15.79-10.52-16.91-9.58-1.78,1.5,1.38,2.2,1.89,2.57,6.56,4.87,20.65,13.94,25.13,19.93,5.04,6.75-.71,11.15-8.41,10.38-16.49-1.63-34.07-15.71-48.6-22.9-1.46,8.31-2.19,23.82-12.77,25.81-6.67,1.25-10.34-3.39-11.16-9.4-1.41-10.44,1.26-34.65-3.23-42.77-3.91-7.06-21.05-25.94-27.34-32.66-3.66-3.91-7.61-7.81-11.5-11.5-1.97-1.87-13.29-10.54-12.97-11.9,5.44-6.25,9.87-13.46,15.44-19.6,3.73-4.11,18.06-18.94,23.47-16.52,2.2.98,18.45,19.11,21.55,22.52,9.61,10.54,18.38,22.7,27.97,33.03,19.19,20.67,47.56,30.46,70.53,46.47,6.25,7.03-.6,17.24-2.99,15.51Z" fill="#fff" stroke="#000" stroke-miterlimit="10" stroke-width="4"/>
    <path id="gorra-inf-juan" d="M1085.66,251.76c-19.81-1.66-39.5-5.07-58.82-9.67-65.55-15.59-167.24-59.42-232.57-42.21-2.34.62-6.32,1.65-7.61,3.88,25.1-4.4,50.68-5.19,76-1.98-4.15,8.82-8.88,18.77-9.88,28.61-.28,2.75-.67,12.73.01,14.74,1.13,3.32,7.48-1.49,3.39,7.62-19.9-4.12-40.2-7.87-58.88-16.12-21.12-9.33-40.24-25.03-11.95-41.66,29.57-17.38,84.42-14.46,117.66-10.06,56.8,7.52,111.49,25.87,161.31,53.69,7.2,4.02,14.62,8.37,21.33,13.16Z" fill="#fff" stroke="#000" stroke-miterlimit="10" stroke-width="4"/>
    <path id="brazo-izq-juan" d="M778.67,422.76l1.48-2.99c19,20.67,42.75,36.69,68.34,48.15.99,20.18-4.6,39.66-9.85,58.84-29.5-14.44-58.9-34.99-82.02-58.48-3.56-3.62-20.09-21.43-21.49-24.57s6.31-10.49,8.33-13.65c9.92-15.56,7.57-19.77,9.31-36.69,1.03-9.99,8.38-28.52,21.22-19.47,9.38,6.62,1.67,27.79,2.61,38.39.34,3.81,2.08,6.69,2.05,10.45Z" fill="#fff" stroke="#000" stroke-miterlimit="10" stroke-width="4"/>
    <path id="cabello-mid-juan" d="M1147.65,317.77c-28.4-12.39-44.53,4-57.77,26.72-.34.58-.16,2.04-1.71,1.27-2.23-1.11-8.75-13.08-9.99-16.01-10.36-24.35-9.04-50.23-6.52-75.99,6.5,1.94,16.14-.34,21.94,1.56,5.08,1.67,23.58,13.93,29.37,17.63,8.71,5.57,16.98,11.83,25.72,17.35,2.02,9.13.59,18.41-1.05,27.46Z" fill="#fff" stroke="#000" stroke-miterlimit="10" stroke-width="4"/>
    <path id="cuello-der-juan" d="M964.66,504.76l51.62-40.87c1.74-.89,13.56-5.17,14.63-4.95,1.74.36,9.6,8.34,10.24,9.79,1.79,4.01-30.05,51.42-36.99,56.02-10.99-10.04-22.99-22.84-39.5-19.99Z" fill="#fff" stroke="#000" stroke-miterlimit="10" stroke-width="4"/>
    <path id="zap-sup-izq-juan" d="M884.31,822.04c2.29-.38,24.14,4.45,29.81,4.77,15.56.89,33.12.28,48.07-3.89l1.29,1.52c.24,8.91,7.02,29.38,3.44,37.09-3.12,6.73-31.54,12.59-39.08,13.92-24.97,4.4-65.34,5.6-88.86-4.51-9.78-4.21-8.46-8.38-4.2-17.55,8.96-19.28,24.69-21.9,42.42-27.58,2.39-.77,5.98-3.59,7.1-3.78Z" fill="#fff" stroke="#000" stroke-miterlimit="10" stroke-width="4"/>
    <path id="zap-sup-der-juan" d="M1088.2,828.95c1.42.26,5.44,18.72,6,21.78,1.14,6.27,4.35,17.3-.04,22.03-19.08,20.53-90.13,26.33-112.83,10.84-6.93-4.73-5.04-9.49-2.95-16.61,1.99-6.78,6.54-13.58,11.25-18.75,1.68-1.84,15.04-14.58,16.05-15,1.36-.56,14.35,2.31,17.49,2.51,21.44,1.38,44.42-.98,65.03-6.8Z" fill="#fff" stroke="#000" stroke-miterlimit="10" stroke-width="4"/>
    <path id="zap-inf-izq-juan" d="M968.66,865.78c.49,9.72-1.68,13.34-10.72,16.76-24.33,9.21-65.97,13.65-91.76,11.22-9.14-.86-36.82-3.69-37.58-15.51-.09-1.43.19-7.77,2.53-7.48,3.47.44,12.43,5.22,17.53,6.5,32.21,8.08,80.1,5.6,110.98-7.02,1.76-.72,8.32-4.87,9.02-4.47Z" fill="#fff" stroke="#000" stroke-miterlimit="10" stroke-width="4"/>
    <path id="zap-inf-der-juan" d="M975.67,883.77c4.16,1.86,7.66,4.84,12,6.48,18.35,6.94,45.03,6.53,64.17,3.2,15.93-2.78,32.18-8.47,44.81-18.68,1.01,10.55-1.76,14.93-10.32,20.17-25.78,15.77-73.63,19.56-101.65,8.32-10.28-4.12-11.95-8.5-9-19.48Z" fill="#fff" stroke="#000" stroke-miterlimit="10" stroke-width="4"/>
    <path id="cuello-juan" d="M1008.66,465.78c-20.57,4.58-40.98,5.86-62,3.99.55,13.6,1.53,27.07,6.01,40.01l55.99-43.99Z" fill="#fff" stroke="#000" stroke-miterlimit="10" stroke-width="4"/>
    <path id="cebello-sup-juan" d="M903.16,216.77c-17.09,1.58-38.26,11.06-47.49,26-1.27-14.3,3.47-27.99,10.65-40.07l57.34,14.07c-6.64.44-13.95-.61-20.5,0Z" fill="#fff" stroke="#000" stroke-miterlimit="10" stroke-width="4"/>
    <path id="cabello-inf-juan" d="M1116.66,408.77c-3.15,21.46-25.22,30.94-45,26.98,9.79-8.97,20.45-18.67,24.01-31.99,6.88,2.28,13.38,6.05,20.98,5.01Z" fill="#fff" stroke="#000" stroke-miterlimit="10" stroke-width="4"/>
    <path id="paladar-juan" d="M896.25,391.01c.83,1.3,3.09,14.58,4.41,18.09,12.15,32.35,49.92,39.03,75.24,16.7,9.18-8.1,22.77-29.63,15.94-41.88-5.29-9.51-14.98.23-21.73,3.09-19.4,8.24-50.47,9.31-70.2,1.84-4.86-1.84-8.56-5.34-13.48-6.01-.13,4.67,9.31,7.39,9.82,8.17Z" fill="#fff" stroke="#000" stroke-miterlimit="10" stroke-width="4"/>
    <path id="dientes-juan" d="M987.4,384.04c2.19,2.08,3.33,8.54.55,10.78-4.12,3.32-22.5,9.11-28.29,10.45-16.54,3.83-55.63,10.84-59.99-12.02,7.12.99,14.25,3.02,21.5,3.5,16.47,1.09,33.84-.61,49.17-6.81,3.87-1.57,13.93-8.87,17.06-5.91Z" fill="#fff" stroke="#000" stroke-miterlimit="10" stroke-width="4"/>
    <path id="lengua-juan" d="M976.65,417.77c2.19,2.09-12.17,11.59-13.98,12.51-12.92,6.58-25.57,7.15-39.02,1.47,12.47-15.19,34.72-17.85,52.99-13.98Z" fill="#fff" stroke="#000" stroke-miterlimit="10" stroke-width="4"/>
    <path id="esclera-izq-juan" d="M876.67,340.42c-.69-.63-4.01-5-3.37-5.65,21.37,11.42,22.11-34.49,3.56-30.99-1.81.34-5.1,3.47-6.02,5.07-1.13,1.98-.78,5.19-2.59,5.92,2.1-35.96,42.47-36.16,42.47,1.51,0,17.67-17.09,39.77-34.05,24.15Z" fill="#fff" stroke="#000" stroke-miterlimit="10" stroke-width="4"/>
    <path id="esclera-der-juan" d="M957.67,341.77c10.78,8.87,20.76-3.65,21.02-14.54.31-12.88-12.06-25.97-23.02-13.46,10.97-35.08,51.64-19.26,47.88,14.39-1.45,12.96-13.52,27.2-27.34,26.64-7.24-.29-16.22-5.89-18.54-13.03Z" fill="#fff" stroke="#000" stroke-miterlimit="10" stroke-width="4"/>
    <path id="ceja-der-juan" d="M1012.66,273.76c-7.22-3.34-13.87-8.42-21.46-11.03-3.52-1.21-8.48-2.36-12.16-2.84-4.73-.62-13.29,2.25-10.95-5.17,2.99-9.46,18.66-5.15,25.26-2.14,8.74,3.98,15.44,12.55,19.31,21.18Z" fill="#fff" stroke="#000" stroke-miterlimit="10" stroke-width="4"/>
    <path id="ceja-izq-juan" d="M908.66,254.77c-12.95-2.01-25.27-1.88-34.99,8,.05-12.71,16.28-20.47,27.4-18.9,6.59.93,8.47,4.51,7.59,10.91Z" fill="#fff" stroke="#000" stroke-miterlimit="10" stroke-width="4"/>
    <path id="pants-juan" d="M879.47,645.19c-1.68,20.65-1.24,41.4-3.03,61.95,2.58,33.35-3.28,71.47-.02,104.25.15,1.51-.11,2.62.96,4,1.23,1.6,11.39,4.31,13.99,4.9,17.69,4.01,41.16,4.72,59.12,2.33,3.26-.43,17.45-2.83,18.36-5.5l1.72-108.54-1.82-2.21c-10.16-4.12-21.14-6.73-30.96-11.7-1.23-.63-6.99-2.96-5.11-4.83l45.28,15.87c-.35,2.46-4.87-.6-3.91,2.39l20.77,117.19c7.31,7.29,42.8,7.98,53.34,7.42,7.01-.38,39.09-4.69,43.3-8.47l-8.02-80.83c-23.05,8.87-28.82-19.49-29.83-36.22-.12-1.96-1.23-8.45,1.98-7.43.49,8.73,4.94,36.22,12.55,40.56,9.44,5.38,24.97-3.85,25.05-15.26.08-12.1-13.04-36.92-16.97-50.33-2.16-7.36-4.21-14.88-4.71-22.59-62.95,15.64-130.83,15.71-192.04-6.93Z" fill="#fff" stroke="#000" stroke-miterlimit="10" stroke-width="4"/>
    <path id="iris-der-juan" d="M965.8,341.56c-13.93,1.8-14.88-26.59-3.39-29.29,14.65-3.45,16.99,27.53,3.39,29.29Z" fill="#fff" stroke="#000" stroke-miterlimit="10" stroke-width="4"/>
    <path id="iris-izq-juan" d="M879.05,334.78c-12.56,1.75-13.42-25.91-3.05-28.55,13.21-3.36,15.32,26.84,3.05,28.55Z" fill="#fff" stroke="#000" stroke-miterlimit="10" stroke-width="4"/>
  </g>
  <g id="Itzel">
    <path id="pierna-izq-itzel" d="M476.67,764.77l-20.01,78c-28.74-11.21-63.84.92-72,32-9.18-3.13-9.36-6.57-7.53-15.04,2.35-10.86,8.32-16.17,11.25-24.74,5.11-14.89,8.62-38.16,11.8-54.2,1.83-9.23,3.75-18.63,4.48-28.03,23.56,6.3,47.59,10.51,72,12.01Z" fill="#fff" stroke="#000" stroke-miterlimit="10" stroke-width="4"/>
    <path id="vestido-itzel" d="M572.65,522.77c-.07-.07-2.11-.37-1.97.48l34.92,221.43c-14.08,6.59-29.4,10.24-44.73,12.8-51.88,8.67-122.51,7.12-171.19-14.22-4.68-2.05-20.09-9.32-20.84-14.2-.51-3.31,12.05-29.68,14.29-35.32,12.24-30.74,23.41-61.82,32.25-93.75,2.15-7.78,3.46-20.15,6.21-26.79,2.25-5.45,14.91-17.9,19.3-24.7,3.25-5.03,8.02-12.19,8.28-17.72-10.11,15.11-20.34,30.6-34,42.97-5.34-13.43-15.25-27.39-26.49-36.49-5.76-4.66-14.54-10.55-22.01-7.49-1.44-1.46,11.23-16.6,12.97-18.52,14.2-15.73,39.12-34.34,60.02-38.98,4.22-.94,16.92-3.22,20.29-1.49.53.27,4.51,8.46,5.89,10.33,12.9,17.49,39.23,31.33,60.51,20.85,12.47-6.14,12.85-18.52,16.52-29.98,10.95-1.96,22.14-2.06,33.17-3.33,5.62-.65,22.8-4.87,26.59-3.34.7.29,4.12,3.15,5.05,3.95,15,12.95,19.42,38.07,15.72,56.74-.69,3.49-1.63,9.4-5.15,10.85l-39.09,10.9c-2.05-.17-2.37-12.62-2.92-15.04-.26-1.13-3.2-9.56-3.58-9.93Z" fill="#fff" stroke="#000" stroke-miterlimit="10" stroke-width="4"/>
    <path id="rostro-itzel" d="M401.65,408.77c-4.73,1.78-6.99,6.35-11.67,8.82-34.38,18.15-76.04-49-43.85-76.85,12.89-11.15,30.36-8.58,42.07,2.98,6.09,6.01,6.6,15.66,14.89,4.98,11.32-14.59,15.65-41.83,16.61-59.89,52.99-9.01,95.92-47.38,118.46-95.02,16.27,20.02,38.41,31.57,58.41,46.57,35.55,26.66,24.99,48.88,30.21,87.79,4.93,36.74,19.8,59.17-4.32,94.94-39.22,58.16-131.27,58.24-186.33,23.71-7.31-4.58-34.94-25.13-36.28-32.7-.33-1.88,2.26-3.26,1.8-5.31ZM614.65,279.76c-1.11-15.73-26.63-32.4-39.95-21.45-3.05,2.5-4.76,9.11-.81,10.79,3.73,1.59,13.77.65,19.78,2.16,7.76,1.94,13.55,7.16,20.99,8.5ZM466.66,298.76c1.62.39,2.32-.32,3.52-.97,12.94-6.94,20.05-13.76,35.44-18.56,3.55-1.11,12.47-.71,13.83-5.16,2.22-7.27-4.85-11.43-11.25-11.34-17.51.26-41.04,17.56-41.55,36.03ZM578.01,352.41c24.46,23.16,51.58-18.36,32.64-44.14-24.49-33.35-59.7,18.52-32.64,44.14ZM496.4,305c-7.52,1.28-15.38,8.49-18.92,15.08-18.2,33.91,23.61,74.44,47.02,40.02,14.96-22,2.49-60.32-28.1-55.1ZM558.66,384.78c1.81,3.28,8.92,2.19,12.06,1.55,11.13-2.29,19.28-16.02,11.94-26.05-8.78-12.01-23.86-8.7-30.99,3,4.08.19,7.41-4.03,11.31-5.69,15.06-6.43,27.6,12.31,12.62,22.62-4.71,3.24-11.31,4.28-16.93,4.58ZM389.65,384.77c-.14-19.52-30.61-49.21-38.99-17.01l7.07-8.42c10.18-8.36,18.86,4.98,24.93,11.94-14.33-1.18-17.8,11.37-11.19,22.19,1.9,3.11,6.93,8.31,10.19,7.81-5.92-4.47-16.02-22.61-5.04-26.07,7.94-2.5,9.07,5.16,13.03,9.57Z" fill="#fff" stroke="#000" stroke-miterlimit="10" stroke-width="4"/>
    <path id="cabello-itzel" d="M628.65,291.76l-5.97-26.51c-8.92-22.81-43.73-38.93-62.49-54.51-8.35-6.94-15.45-15.3-24.02-21.97-19.1,45.9-56.26,79.81-104,94.01-2.54.76-16.01,3.32-16.52,3.99-.14.18,1.2,2.72,1.11,4.47-.75,13.96-5.12,34.3-11.22,46.9-.72,1.49-6.34,11.23-6.9,11.62-1.66,1.16-6.91-7.28-8.33-8.64-15.05-14.41-36.11-14.51-50.64.65-15.45-47.44-7.15-105.85,32.7-138.87l15.29,3.88c-2.92,3.29-7.46,5.82-9.83,9.66-10.69,17.26,15.01,36.99,29.81,19.81,2.73-3.17,3.9-7.26,6.53-10.47,4.5,13.47,16.43,22.7,30.19,14.19,13.68-8.47,6.53-25.17-3.69-33.18,40.13-.23,27.05-51.11-8.99-30.01.06-2.39,1.56-4.12,1.91-6.58.3-2.17-.44-7.17.25-8.26.45-.72,13.57-6.16,15.59-6.91,62.76-23.35,152.43.17,177,67.5,8.4,23.02,9.03,45.69,2.24,69.24Z" fill="#fff" stroke="#000" stroke-miterlimit="10" stroke-width="4"/>
    <path id="brazo-der-itzel" d="M627.66,502.27c-1.7-15.1-11.18-29.42-22-39.49,25.35-7.97,50.33-22.88,70.89-39.62,10.42-8.48,15.24-12.14,19.61-25.39,5.46-16.54,7.75-35.02,13.22-51.78,2.89-8.83,8.37-25.72,20.54-23.02,6.53,1.45,1.38,5.01-.47,9.09-6.4,14.16-10.8,29.44-13.8,44.69,1.49-.25,1.93-1.84,2.49-3,3.68-7.65,5.43-18.28,8.48-26.51,4.86-13.12,17.04-42.87,30.89-18.79.38,1.56-4.38,3.28-5.86,4.81-10.58,10.9-13.37,37.14-18,51.49,11.32-13.19,8.03-39.29,21.97-50.52,13.83-11.15,13.45,7.65,13.07,17.07-.1,2.45-1.56,16.3-2.25,17.24-.32.44-5.64,1.87-7.83,3.68-10.51,8.62-7.77,23.66-9.07,34.93-2.99,25.96-53.05,71.28-74,87-9.84,7.39-21.42,14.9-32.22,20.78-3.59,1.95-11.89,6.78-15.19,7.81-3.03.94-.48-2.32-.48-2.49,0-5.58.6-12.69,0-18Z" fill="#fff" stroke="#000" stroke-miterlimit="10" stroke-width="4"/>
    <path id="brazo-izq-itzel" d="M298.65,651.77c-1.34-1.46-16.5,13.81-18.02,15.47-3.69,4.05-10.88,15.54-15.14,16.86-4.63,1.44-9.02.38-9.79-4.92-1.81-12.5,20.53-27.76,27.96-36.41-11,4.92-21.97,15.64-28.02,25.99-3.2-1.21-6.08-3.67-5.94-7.4.51-13.71,37.47-39.56,47.97-49.09,15-13.6,27.08-30.39,40.47-45.53,10.14-11.46,20.78-22.6,30.96-34.04,4.32-2.53,15.15,4.96,19.03,8.08,8.77,7.05,15.72,17.86,21.29,27.49-11.31,12.26-23.15,24.11-33.74,37.01-6.49,7.9-23.85,28.99-24.91,38.09-1.05,8.95-.39,38.09-6.06,43.94-7.41,7.64-14.16-1.1-15.77-8.33-.69-3.1-1.01-18.11-2.77-18.2-3.08-.16-31.31,25.79-37.59,29.4-5.4,3.1-15.51,7.52-16.88-1.99-.85-5.87,3.95-10.12,7.44-14.44,5.17-6.39,12.34-12.31,17.52-18.48.94-1.12,2.43-1.63,1.99-3.5Z" fill="#fff" stroke="#000" stroke-miterlimit="10" stroke-width="4"/>
    <path id="chongo-itzel" d="M468.65,146.76c-6.48-3.09-34.37,13.1-35.92,11.99-.31-.22-2.25-4.79-4.03-6.52-16.13-15.64-39.17,4.02-29.03,23.52-3.33-.96-5.67-3.24-9.18-4.31-13.69-4.15-29.34,2.62-26.75,18.76.54,3.38,5.98,10.28,5.87,10.92-.3,1.7-16.23,15.5-17.91,19.16-1.08.97-1.2.87-2.08-.16-32.06-37.19-9.52-92.54,31.38-111.54,35.06-16.29,87.72-9.32,87.66,38.16Z" fill="#fff" stroke="#000" stroke-miterlimit="10" stroke-width="4"/>
    <path id="pierna-der-itzel" d="M580.65,756.77l-7.44,73.05c-21.25,5.64-39.44,23.69-42.57,45.94-7.1-2.44-24.31-6.72-27.87-13.65-2.49-4.86,2.17-17.81,2.86-23.87,2.16-18.9,2.8-40.73,4.01-59.99.26-4.14-.17-8.35.02-12.48,23.86-1.3,47.68-3.65,70.99-9Z" fill="#fff" stroke="#000" stroke-miterlimit="10" stroke-width="4"/>
    <path id="pie-izq-itzel" d="M435.66,892.77c3.75-3.57,3.75-15.86-1.52-16.99s.36,4.26.79,5.28c1.68,3.96-1.69,8.54-3.92,11.79l-24.35-5.08c4.9-21.02,25.46-29.79,45.56-29.03,13.75.52,34.62,8.85,32.52,25.58-.33,2.61-8.35,4.61-11.07,4.45,2.48-5.92,1.1-15.1-6-16.98.16,3.4,3.39,5.12,3.94,8.55,2.07,12.86-6.28,10.57-15.94,11.44,1.44-6.27,2.7-17.29-6-17.98,4.76,2.4,5.05,18.99,1.5,18.99h-15.5Z" fill="#fff" stroke="#000" stroke-miterlimit="10" stroke-width="4"/>
    <path id="pie-der-itzel" d="M625.31,856.12c5.57,5.43,12.43,17.31,1.36,20.64.67-7-1.63-17.31-10.01-17.98,8.9,10.32,12.28,22.97-6,22.98,2.26-7.81,1.83-17.51-5.99-21.99.58,5,3.7,6.92,4.03,12.47.7,11.77-4.34,10.4-14.04,11.52,5.39-5.75-1.17-19.1-7.52-20.98-4.94-1.46,3.6,6.46,3.97,7.03,2.09,3.21,3.86,11.64.39,13.78-1.81,1.11-27.45-2.53-31.84-2.84,6.3-19.19,23.15-38.24,45.26-34.75,5.8.92,16.15,5.99,20.39,10.12Z" fill="#fff" stroke="#000" stroke-miterlimit="10" stroke-width="4"/>
    <path id="cuello-itzel" d="M537.51,473.92c.57.9.21,4.82.03,6.24-5.05,40.7-74.73,17.65-73.87-16.39,20.52,8.3,42.48,10.51,64.53,10.05,2.1-.04,7.97-2.02,9.31.1Z" fill="#fff" stroke="#000" stroke-miterlimit="10" stroke-width="4"/>
    <path id="san-sup-der-itzel" d="M473.66,860.76c-21.84-9.81-54.37-6.02-66.82,16.69-1.07,1.95-2.18,7.83-3.76,8.23-3.12-.31-15.83-6.94-16.08-9.39,10.06-38.16,63.96-46.63,86.66-15.53Z" fill="#fff" stroke="#000" stroke-miterlimit="10" stroke-width="4"/>
    <path id="san-inf-izq-itzel" d="M499.64,862.77c.28.2,1.65,3.61,4.08,5.43,22.2,16.57,104.17,25.21,127.87,10,2.13-1.37,4.79-6.66,6.17-3.07,2.12,5.49.38,11.53-4.36,14.89-23.51,16.66-113.86,10.29-133.8-11.7-5.95-6.57-3.6-18.11.03-15.54Z" fill="#fff" stroke="#000" stroke-miterlimit="10" stroke-width="4"/>
    <path id="sand-inf-der-itzel" d="M487.67,884.77c1.64-.27.93,1.34.99,2.48.23,4.29.25,8.05-2.45,11.56-4.38,5.69-23.79,8.03-31.17,8.83-22.41,2.44-46.33.71-66.4-10.36-9.96-5.5-24.77-15.32-15-27.52.07,1.83,1.29,2.87,2.52,3.99,23.97,21.77,63.1,25.77,93.7,19.71,5-.99,17.71-2.88,17.81-8.7Z" fill="#fff" stroke="#000" stroke-miterlimit="10" stroke-width="4"/>
    <path id="san-sup-izq-itzel" d="M598.65,842.76c-19.77.26-38.05,18.97-41.01,38.01l-24-5.02c3.32-22.58,27.66-46.33,51.42-42.9,2.43.35,16.16,7.78,13.58,9.91Z" fill="#fff" stroke="#000" stroke-miterlimit="10" stroke-width="4"/>
    <path id="hojas-flor-itzel" d="M442.72,203.96c11.67-1.58,22.8-7.89,17.41-21.39-5.1-12.76-23.65-6.46-31.4.4-8.15,7.21-1.09,7.23.27,13.72,4.81,22.95-27.71,24.55-29.7,5.67-1.29-12.25,12.98-20.43,23.87-15.43,3.21-10.43,12.25-21.33,3.1-31.51-5.53-6.15-12.76-6.94-19.75-2.66-14.36,8.79,1.47,33.31-.3,35.2-4.86-.21-6.09-5.96-9.5-8.99-7.91-7.04-25.44-8.14-29.54,3.44-4.8,13.55,10.11,21.15,21.6,21.59,3.26.12,6.95-2.78,9.43.47-9.32,6.25-27.11,14.67-17.41,28.43,7.38,10.46,19.56,8.28,26.27-1.59,1.85-2.72,5.61-13.8,6.18-14.33,1.72-1.62,1.67.37,2,1.46,1.92,6.38,2.76,11.31,7.47,16.54,13.05,14.48,37.18-4.38,19.05-22.05-.99-1.89-10.32-5.72-9.53-7.44,1.21-2.63,7.9-1.17,10.48-1.52Z" fill="#fff" stroke="#000" stroke-miterlimit="10" stroke-width="4"/>
    <path id="centro-flor-itzel" d="M410.36,188.97c17.9-5.29,22.83,21.61,5.53,23.61-9.52,1.1-15.65-9.99-11.1-18.19.68-1.23,4.34-5.06,5.57-5.42Z" fill="#fff" stroke="#000" stroke-miterlimit="10" stroke-width="4"/>
    <path id="paladar-itzel" d="M591.73,395.37c-23.93,6.77-48.89,10.11-73.22,2.71-8.1-2.46-19.35-11.83-26.26-2.7-6.82,9.01,1.96,25.28,8.45,32.5,30.17,33.61,85.37,8.38,91.02-32.52Z" fill="#fff" stroke="#000" stroke-miterlimit="10" stroke-width="4"/>
    <path id="dientes-itzel" d="M573.77,403.02c.83,8.06-5.27,11.4-12.46,12.04-18.17,1.61-47.53-2.06-64.77-8.31-5.08-1.84-4.76-6.09-1.34-9.8,5.26-5.71,15.86,2.13,22.13,4.01,18.26,5.49,37.8,4.86,56.44,2.06Z" fill="#fff" stroke="#000" stroke-miterlimit="10" stroke-width="4"/>
    <path id="lengua-itzel" d="M554.66,436.76c-13.55,4.42-24.2,5.61-37.68.19-6.42-2.58-14.52-7.7-17.32-14.17,18.73-7.42,42.24-1.54,55,13.97Z" fill="#fff" stroke="#000" stroke-miterlimit="10" stroke-width="4"/>
    <path id="esclera-der-itzel" d="M589.39,301c-12.45,2.24-18.72,20.15-17.72,31.26,1.25,13.85,14.04,28.05,28.67,21.69,22.56-9.81,14-57.44-10.96-52.95Z" fill="#fff" stroke="#000" stroke-miterlimit="10" stroke-width="4"/>
    <path id="iris-izq-itzel" d="M601.85,345.85c-13.93,1.86-14.88-27.47-3.39-30.27,14.65-3.56,16.99,28.45,3.39,30.27Z" fill="#fff" stroke="#000" stroke-miterlimit="10" stroke-width="5"/>
    <path id="ceja-der-itzel" d="M515.42,268c.86.87,1.75,4.84,1.16,5.68-8.05,1.77-16.1,3.33-23.6,6.91l-22.32,12.17c6.03-15.23,23.87-27.78,40.52-25.99,1.28.14,3.35.33,4.24,1.23Z" fill="#fff" stroke="#000" stroke-miterlimit="10" stroke-width="4"/>
    <path id="ceja-izq-itzel" d="M609.65,274.77c-5.99-2.94-12.21-6.51-18.94-7.55-3.97-.61-17.25,1.28-15.91-3.78,3.2-12.08,34.01-.32,34.85,11.33Z" fill="#fff" stroke="#000" stroke-miterlimit="10" stroke-width="4"/>
    <path id="esclera-der-itzel1" data-name="esclera-der-itzel" d="M497.9,307.72c-17.99,4.47-25.76,29.11-18.26,45.26,12.4,26.88,44.63,18.67,47.41-9.83,2.34-17.14-10.19-39.46-28.98-35.46l-.17.04Z" fill="#fff" stroke="#000" stroke-miterlimit="10" stroke-width="4"/>
    <path id="iris-der-itzel" d="M514.66,355.91c-13.93,1.86-14.88-27.47-3.39-30.27,14.65-3.56,16.99,28.45,3.39,30.27Z" fill="#fff" stroke="#000" stroke-miterlimit="10" stroke-width="5"/>
  </g>
</svg>